# xmcd CD database file
#
# Track frame offsets:
#	150
#	29915
#	77108
#	99083
#
# Disc length: 1519 seconds
#
# Revision: 0
# Processed by: cddbd v1.5.1PL0 Copyright (c) Steve Scherf et al.
# Submitted via: CDex 1.51
#
DISCID=2805ed04
DTITLE=発狂一直線 - DEADNOMI
DYEAR=1993
DGENRE=Rock
TTITLE0=ジェット・ゴー・ゴー
TTITLE1=デッドノミ
TTITLE2=フォール・イン・ウィンター
TTITLE3=デス・デスコ
EXTD=YEAR: 1993
EXTT0=
EXTT1=
EXTT2=
EXTT3=
PLAYORDER=
